<svg width="60" height="42" viewBox="0 0 60 42" fill="none" xmlns="http://www.w3.org/2000/svg">
<path d="M17.2578 42C15.1219 42 13.3047 41.2505 11.8062 39.7516C10.3073 38.2531 9.5578 36.4359 9.5578 34.3H2.9351L3.8717 30.1H11.0012C11.6508 29.0337 12.5258 28.1839 13.6262 27.5506C14.7261 26.9169 15.9367 26.6 17.2578 26.6C18.5789 26.6 19.7897 26.9169 20.8901 27.5506C21.99 28.1839 22.865 29.0337 23.5151 30.1H35.8239L41.839 4.2H11.179L11.3512 3.4678C11.5593 2.44813 12.0573 1.61536 12.845 0.969498C13.6332 0.323165 14.5602 0 15.6261 0H47.0883L44.66 10.5H51.6656L59.6617 21.1617L57.05 34.3H52.6344C52.6344 36.4359 51.8852 38.2531 50.3867 39.7516C48.8878 41.2505 47.0706 42 44.9351 42C42.7992 42 40.9817 41.2505 39.4828 39.7516C37.9843 38.2531 37.2351 36.4359 37.2351 34.3H24.9578C24.9578 36.4359 24.2083 38.2531 22.7094 39.7516C21.2109 41.2505 19.3937 42 17.2578 42ZM41.4939 24.15H54.7617L55.1495 22.1683L49.5656 14.7H43.6961L41.4939 24.15ZM41.4295 5.8478L41.839 4.2L35.8239 30.1L36.2334 28.4522L41.4295 5.8478ZM0 24.2522L1.05 20.0522H15.0234L13.9734 24.2522H0ZM5.6 14.2478L6.65 10.0478H23.4234L22.3734 14.2478H5.6ZM17.2578 37.8C18.2308 37.8 19.0573 37.4598 19.7372 36.7794C20.4176 36.0995 20.7578 35.273 20.7578 34.3C20.7578 33.327 20.4176 32.5005 19.7372 31.8206C19.0573 31.1402 18.2308 30.8 17.2578 30.8C16.2848 30.8 15.4583 31.1402 14.7784 31.8206C14.098 32.5005 13.7578 33.327 13.7578 34.3C13.7578 35.273 14.098 36.0995 14.7784 36.7794C15.4583 37.4598 16.2848 37.8 17.2578 37.8ZM44.9351 37.8C45.9076 37.8 46.7341 37.4598 47.4145 36.7794C48.0949 36.0995 48.4351 35.273 48.4351 34.3C48.4351 33.327 48.0949 32.5005 47.4145 31.8206C46.7341 31.1402 45.9076 30.8 44.9351 30.8C43.9621 30.8 43.1354 31.1402 42.455 31.8206C41.7746 32.5005 41.4344 33.327 41.4344 34.3C41.4344 35.273 41.7746 36.0995 42.455 36.7794C43.1354 37.4598 43.9621 37.8 44.9351 37.8Z" fill="#248BC6"/>
</svg>
