<svg width="42" height="42" viewBox="0 0 42 42" fill="none" xmlns="http://www.w3.org/2000/svg">
<path d="M27.3711 5.42969L27.4473 5.49023L27.5439 5.50195L35.5283 6.4707L36.498 14.4561L36.5098 14.5527L36.5703 14.6289L41.5557 21L36.5703 27.3711L36.5098 27.4473L36.498 27.5439L35.5283 35.5283L27.5439 36.498L27.4473 36.5098L27.3711 36.5703L21 41.5557L14.6289 36.5703L14.5527 36.5098L14.4561 36.498L6.4707 35.5283L5.50195 27.5439L5.49023 27.4473L5.42969 27.3711L0.443359 21L5.42969 14.6289L5.49023 14.5527L5.50195 14.4561L6.4707 6.4707L14.4561 5.50195L14.5527 5.49023L14.6289 5.42969L21 0.443359L27.3711 5.42969ZM20.7861 4.5918L15.8018 8.44629L9.50098 9.24609L9.23047 9.28027L9.19824 9.55176L8.44531 15.8018L4.5918 20.7861L4.42578 21L4.5918 21.2139L8.44629 26.1973L9.24609 32.499L9.28027 32.7695L9.55176 32.8018L15.8018 33.5537L20.7861 37.4082L21 37.5742L21.2139 37.4082L26.1973 33.5527L32.499 32.7539L32.7695 32.7197L32.8018 32.4482L33.5537 26.1973L37.4082 21.2139L37.5742 21L37.4082 20.7861L33.5527 15.8018L32.7539 9.54883L32.7197 9.28027L32.4512 9.24609L26.1973 8.44629L21.2139 4.5918L21 4.42578L20.7861 4.5918ZM20.0459 13.7139H28.2861V21.9541C28.2861 24.2487 27.4869 26.1879 25.8828 27.792C24.2789 29.3959 22.3403 30.1952 20.0459 30.1953C19.2505 30.1953 18.4874 30.0881 17.7568 29.875C17.0264 29.6619 16.3246 29.3425 15.6514 28.9141L15.415 28.7627L14.4521 29.7256C14.1743 30.0033 13.8207 30.1475 13.3633 30.1475C12.9059 30.1474 12.5523 30.0035 12.2744 29.7256C11.9965 29.4477 11.8526 29.0941 11.8525 28.6367C11.8525 28.1793 11.9967 27.8257 12.2744 27.5479L13.2373 26.585L13.0859 26.3486C12.6575 25.6754 12.3381 24.9736 12.125 24.2432C11.9119 23.5126 11.8047 22.7495 11.8047 21.9541C11.8048 19.6597 12.6041 17.7211 14.208 16.1172C15.8121 14.5131 17.7513 13.7139 20.0459 13.7139ZM20.0459 16.832C18.6192 16.832 17.3993 17.3282 16.4092 18.3184C15.4192 19.3084 14.923 20.5276 14.9229 21.9541C14.9229 22.2666 14.9573 22.579 15.0264 22.8896C15.0927 23.188 15.1753 23.4859 15.2744 23.7832L15.4531 24.3174L15.8525 23.9219L19.9092 19.9121L19.9111 19.9111C20.1891 19.6332 20.5424 19.4883 21 19.4883C21.4576 19.4883 21.8109 19.6332 22.0889 19.9111C22.3668 20.1891 22.5117 20.5424 22.5117 21C22.5117 21.4576 22.3668 21.8109 22.0889 22.0889L22.0879 22.0908L18.0781 26.1475L17.6826 26.5469L18.2168 26.7256C18.5141 26.8247 18.812 26.9073 19.1104 26.9736C19.421 27.0427 19.7334 27.0771 20.0459 27.0771C21.4724 27.077 22.6916 26.5808 23.6816 25.5908C24.6718 24.6007 25.168 23.3808 25.168 21.9541V16.832H20.0459Z" fill="#248BC6" stroke="#248BC6" stroke-width="0.7"/>
</svg>
