<svg width="19" height="25" viewBox="0 0 19 25" fill="none" xmlns="http://www.w3.org/2000/svg">
<path d="M5.83333 13.6663H8.16667V10.458H10.5V13.6663H12.8333V8.12467L9.33333 5.79134L5.83333 8.12467V13.6663ZM9.33333 21.0747C11.7056 18.8969 13.4653 16.9184 14.6125 15.1393C15.7597 13.3601 16.3333 11.7802 16.3333 10.3997C16.3333 8.28023 15.6576 6.54481 14.3062 5.19342C12.9549 3.84204 11.2972 3.16634 9.33333 3.16634C7.36944 3.16634 5.71181 3.84204 4.36042 5.19342C3.00903 6.54481 2.33333 8.28023 2.33333 10.3997C2.33333 11.7802 2.90694 13.3601 4.05417 15.1393C5.20139 16.9184 6.96111 18.8969 9.33333 21.0747ZM9.33333 24.1663C6.20278 21.5025 3.86458 19.0281 2.31875 16.7434C0.772917 14.4587 0 12.3441 0 10.3997C0 7.48301 0.938194 5.1594 2.81458 3.42884C4.69097 1.69829 6.86389 0.833008 9.33333 0.833008C11.8028 0.833008 13.9757 1.69829 15.8521 3.42884C17.7285 5.1594 18.6667 7.48301 18.6667 10.3997C18.6667 12.3441 17.8937 14.4587 16.3479 16.7434C14.8021 19.0281 12.4639 21.5025 9.33333 24.1663Z" fill="#393939"/>
</svg>
