<svg width="20" height="18" viewBox="0 0 20 18" fill="none" xmlns="http://www.w3.org/2000/svg">
<path d="M4.94141 2.00002C4.94114 2.53046 4.73017 3.03906 4.35491 3.41394C3.97965 3.78883 3.47084 3.99929 2.94041 3.99902C2.40997 3.99876 1.90137 3.78779 1.52649 3.41253C1.1516 3.03727 0.941141 2.52846 0.941407 1.99802C0.941672 1.46759 1.15264 0.958988 1.5279 0.584103C1.90316 0.209218 2.41197 -0.00124153 2.94241 -0.000976312C3.47284 -0.000711096 3.98144 0.210257 4.35633 0.585517C4.73121 0.960777 4.94167 1.46959 4.94141 2.00002ZM5.00141 5.48002H1.00141V18H5.00141V5.48002ZM11.3214 5.48002H7.34141V18H11.2814V11.43C11.2814 7.77002 16.0514 7.43002 16.0514 11.43V18H20.0014V10.07C20.0014 3.90002 12.9414 4.13002 11.2814 7.16002L11.3214 5.48002Z" fill="#282828"/>
</svg>
