<svg width="22" height="22" viewBox="0 0 22 22" fill="none" xmlns="http://www.w3.org/2000/svg">
<path d="M10.9987 8.02148C10.2086 8.02148 9.45081 8.33536 8.89211 8.89406C8.33341 9.45276 8.01953 10.2105 8.01953 11.0007C8.01953 11.7908 8.33341 12.5485 8.89211 13.1072C9.45081 13.6659 10.2086 13.9798 10.9987 13.9798C11.7888 13.9798 12.5466 13.6659 13.1053 13.1072C13.664 12.5485 13.9779 11.7908 13.9779 11.0007C13.9779 10.2105 13.664 9.45276 13.1053 8.89406C12.5466 8.33536 11.7888 8.02148 10.9987 8.02148Z" fill="#282828"/>
<path fill-rule="evenodd" clip-rule="evenodd" d="M6.20606 2.82528C9.39243 2.4723 12.608 2.4723 15.7944 2.82528C17.5351 3.01962 18.9386 4.39003 19.143 6.1372C19.5206 9.36815 19.5206 12.6321 19.143 15.863C18.9386 17.6102 17.5351 18.9806 15.7953 19.1759C12.6086 19.5289 9.39273 19.5289 6.20606 19.1759C4.46531 18.9806 3.0619 17.6102 2.85748 15.8639C2.4798 12.6327 2.4798 9.36845 2.85748 6.1372C3.0619 4.39003 4.46531 3.01962 6.20606 2.82528ZM15.5836 5.50012C15.3404 5.50012 15.1073 5.59669 14.9354 5.7686C14.7635 5.94051 14.6669 6.17367 14.6669 6.41678C14.6669 6.6599 14.7635 6.89306 14.9354 7.06496C15.1073 7.23687 15.3404 7.33345 15.5836 7.33345C15.8267 7.33345 16.0598 7.23687 16.2317 7.06496C16.4037 6.89306 16.5002 6.6599 16.5002 6.41678C16.5002 6.17367 16.4037 5.94051 16.2317 5.7686C16.0598 5.59669 15.8267 5.50012 15.5836 5.50012ZM6.64606 11.0001C6.64606 9.84532 7.10481 8.73782 7.92137 7.92126C8.73793 7.10469 9.84543 6.64595 11.0002 6.64595C12.155 6.64595 13.2625 7.10469 14.0791 7.92126C14.8957 8.73782 15.3544 9.84532 15.3544 11.0001C15.3544 12.1549 14.8957 13.2624 14.0791 14.079C13.2625 14.8955 12.155 15.3543 11.0002 15.3543C9.84543 15.3543 8.73793 14.8955 7.92137 14.079C7.10481 13.2624 6.64606 12.1549 6.64606 11.0001Z" fill="#282828"/>
</svg>
