<svg width="36" height="45" viewBox="0 0 36 45" fill="none" xmlns="http://www.w3.org/2000/svg">
<path d="M17.7629 1.18525L18.2295 0.0957889C18.082 0.0325888 17.9233 0 17.7629 0C17.6025 0 17.4437 0.0325888 17.2963 0.0957889L17.7629 1.18525ZM17.7629 43.8162L17.1755 44.844C17.3544 44.9462 17.5569 45 17.7629 45C17.9689 45 18.1713 44.9462 18.3502 44.844L17.7629 43.8162ZM17.2939 0.0957889L2.15286 6.58516L3.086 8.76407L18.2295 2.2747L17.2939 0.0957889ZM4.11067e-08 9.85353V26.0959H2.36838V9.85353H4.11067e-08ZM7.75646 39.4631L17.1755 44.844L18.3502 42.7883L8.93118 37.4049L7.75646 39.4631ZM18.3502 44.844L27.7693 39.4631L26.5946 37.4049L17.1755 42.7883L18.3502 44.844ZM35.5258 26.0959V9.85353H33.1574V26.1006L35.5258 26.0959ZM33.3705 6.58753L18.2295 0.0957889L17.2963 2.2747L32.4398 8.76407L33.3705 6.58753ZM35.5258 9.85353C35.5252 9.15833 35.3208 8.47619 34.9377 7.89607C34.5546 7.31594 34.0097 6.86098 33.3705 6.58753L32.4398 8.76407C32.6529 8.85545 32.8345 9.0074 32.9621 9.20107C33.0897 9.39475 33.1576 9.62162 33.1574 9.85353H35.5258ZM27.7693 39.4631C30.1257 38.1165 32.0843 36.1708 33.4465 33.8233C34.8086 31.4759 35.526 28.81 35.5258 26.0959H33.1574C33.1573 28.3921 32.5502 30.6475 31.3977 32.6335C30.2452 34.6195 28.5882 36.2656 26.5946 37.4049L27.7693 39.4631ZM4.11067e-08 26.0959C-0.000198269 28.81 0.717135 31.4759 2.07929 33.8233C3.44145 36.1708 5.40001 38.1165 7.75646 39.4631L8.93118 37.4049C6.93757 36.2656 5.28055 34.6195 4.12804 32.6335C2.97552 30.6475 2.36847 28.3921 2.36838 26.0959H4.11067e-08ZM2.15523 6.58753C1.51606 6.86098 0.971174 7.31594 0.588076 7.89607C0.204977 8.47619 0.00050711 9.15833 4.11067e-08 9.85353H2.36838C2.36838 9.37985 2.65259 8.95354 3.086 8.76407L2.15523 6.58753Z" fill="#248BC6"/>
<path d="M24.8685 17.7637L15.395 27.2372L10.6582 22.5004" stroke="#248BC6" stroke-width="2" stroke-linecap="round" stroke-linejoin="round"/>
</svg>
