<svg width="34" height="46" viewBox="0 0 34 46" fill="none" xmlns="http://www.w3.org/2000/svg">
<path d="M15.611 14.1419C12.0119 14.4051 8.77791 15.9956 6.37666 18.4361C3.74163 21.1143 2.11389 24.8125 2.11389 28.8966C2.11389 32.9806 3.74168 36.6808 6.37666 39.3572C9.00989 42.0354 12.6503 43.6898 16.6687 43.6898C20.6868 43.6898 24.3273 42.0353 26.9607 39.3572C29.5957 36.6809 31.2234 32.9808 31.2234 28.8966C31.2234 26.2733 30.5543 23.811 29.3798 21.6793C28.1586 19.4636 26.3959 17.6008 24.2734 16.2772C23.777 15.9683 23.6187 15.3102 23.9227 14.8038C24.2249 14.2993 24.8742 14.1402 25.3724 14.4473C27.8041 15.9647 29.824 18.0962 31.2196 20.63C32.5686 23.0778 33.3367 25.8986 33.3367 28.8966C33.3367 33.5747 31.4715 37.8086 28.455 40.8762C25.4386 43.942 21.271 45.8379 16.6683 45.8379C12.0657 45.8379 7.89996 43.9403 4.8817 40.8762C1.86538 37.8105 0 33.5746 0 28.8966C0 24.2185 1.8652 19.9846 4.8817 16.9169C7.666 14.087 11.4289 12.2535 15.6107 11.9885V9.93921L11.6483 7.9393C11.2759 7.75283 11.0601 7.37261 11.0601 6.97771H11.0565V1.07493C11.0565 0.48264 11.5296 0 12.1141 0C12.3102 0 12.4937 0.054844 12.6519 0.148077L16.6683 2.17359L20.6847 0.148077C20.843 0.0530188 21.0264 0 21.2225 0C21.8053 0 22.2801 0.480768 22.2801 1.07493V6.97771H22.2765C22.2765 7.37258 22.0607 7.7528 21.6884 7.9393L17.726 9.93921V28.8966C17.726 29.4889 17.253 29.9716 16.6684 29.9716C16.0856 29.9716 15.6108 29.4908 15.6108 28.8966V22.5881C14.2959 22.8148 13.1196 23.4546 12.2167 24.3705C11.0782 25.5277 10.3731 27.1273 10.3731 28.895C10.3731 30.661 11.0782 32.2624 12.2167 33.4196C13.3553 34.5768 14.9291 35.2934 16.6684 35.2934C18.4058 35.2934 19.9814 34.5768 21.12 33.4196C22.2586 32.2624 22.9636 30.6628 22.9636 28.895C22.9636 28.0303 22.7999 27.2132 22.5032 26.4746V26.4728L22.4996 26.4746C22.1866 25.6995 21.7333 25.0012 21.1686 24.4144C20.7603 23.9939 20.7675 23.3157 21.1812 22.8989C21.5949 22.4839 22.2622 22.4912 22.6722 22.9117C23.4313 23.6996 24.0428 24.6338 24.4583 25.6684L24.4547 25.6703C24.8576 26.6721 25.0788 27.7616 25.0788 28.8932C25.0788 31.2533 24.1381 33.3885 22.6165 34.9368C21.0948 36.4834 18.994 37.4395 16.6702 37.4395C14.3482 37.4395 12.2474 36.4834 10.7239 34.9368C9.2023 33.3903 8.26159 31.2551 8.26159 28.8932C8.26159 26.5331 9.2023 24.3979 10.7239 22.8495C12.0118 21.5424 13.7133 20.6558 15.6126 20.4145V14.1388L15.611 14.1419ZM17.7244 7.54788L20.1633 6.31757V2.80763L17.7244 4.03794V7.54788ZM13.172 6.31757L15.611 7.54788V4.03794L13.172 2.80763V6.31757Z" fill="#248BC6"/>
</svg>
