<svg width="20" height="25" viewBox="0 0 20 25" fill="none" xmlns="http://www.w3.org/2000/svg">
<path d="M2.94272 24.1665C2.30105 24.1665 1.75174 23.938 1.2948 23.4811C0.837849 23.0241 0.609375 22.4748 0.609375 21.8332V7.83306C0.609375 7.19139 0.837849 6.64208 1.2948 6.18513C1.75174 5.72818 2.30105 5.49971 2.94272 5.49971H5.27607C5.27607 4.21636 5.73302 3.11775 6.64692 2.20385C7.56081 1.28996 8.65943 0.833008 9.94277 0.833008C11.2261 0.833008 12.3247 1.28996 13.2386 2.20385C14.1525 3.11775 14.6095 4.21636 14.6095 5.49971H16.9428C17.5845 5.49971 18.1338 5.72818 18.5908 6.18513C19.0477 6.64208 19.2762 7.19139 19.2762 7.83306V21.8332C19.2762 22.4748 19.0477 23.0241 18.5908 23.4811C18.1338 23.938 17.5845 24.1665 16.9428 24.1665H2.94272ZM2.94272 21.8332H16.9428V7.83306H14.6095V10.1664C14.6095 10.497 14.4977 10.7741 14.2741 10.9977C14.0504 11.2213 13.7734 11.3331 13.4428 11.3331C13.1122 11.3331 12.8352 11.2213 12.6115 10.9977C12.3879 10.7741 12.2761 10.497 12.2761 10.1664V7.83306H7.60942V10.1664C7.60942 10.497 7.49762 10.7741 7.27401 10.9977C7.05039 11.2213 6.77331 11.3331 6.44275 11.3331C6.11219 11.3331 5.83511 11.2213 5.61149 10.9977C5.38788 10.7741 5.27607 10.497 5.27607 10.1664V7.83306H2.94272V21.8332ZM7.60942 5.49971H12.2761C12.2761 4.85804 12.0477 4.30873 11.5907 3.85178C11.1338 3.39483 10.5844 3.16636 9.94277 3.16636C9.3011 3.16636 8.75179 3.39483 8.29485 3.85178C7.8379 4.30873 7.60942 4.85804 7.60942 5.49971Z" fill="#393939"/>
</svg>
