<svg width="42" height="42" viewBox="0 0 42 42" fill="none" xmlns="http://www.w3.org/2000/svg">
<path d="M21 0.5C23.8399 0.5 26.5025 1.03896 28.9922 2.11328C31.4914 3.19177 33.6605 4.65271 35.5039 6.49609C37.3473 8.33948 38.8082 10.5086 39.8867 13.0078C40.961 15.4975 41.5 18.1601 41.5 21C41.5 23.8399 40.961 26.5025 39.8867 28.9922C38.8082 31.4914 37.3473 33.6605 35.5039 35.5039C33.6605 37.3473 31.4914 38.8082 28.9922 39.8867C26.5025 40.961 23.8399 41.5 21 41.5C18.1601 41.5 15.4975 40.961 13.0078 39.8867C10.5086 38.8082 8.33948 37.3473 6.49609 35.5039C4.65271 33.6605 3.19177 31.4914 2.11328 28.9922C1.03896 26.5025 0.5 23.8399 0.5 21C0.5 18.1601 1.03896 15.4975 2.11328 13.0078C3.19177 10.5086 4.65271 8.33948 6.49609 6.49609C8.33948 4.65271 10.5086 3.19177 13.0078 2.11328C15.4975 1.03896 18.1601 0.5 21 0.5ZM21 3.7002C19.4159 3.7002 17.8907 3.90757 16.4268 4.32324C14.9723 4.73629 13.6131 5.30257 12.3516 6.02344L12.0996 6.16699V11H20.0547C20.6077 11 21.1376 11.1224 21.6484 11.3701C22.1596 11.618 22.5804 11.9554 22.917 12.3838L22.9199 12.3877L25.8594 16.0625L26.0098 16.25H29.4004C29.8693 16.2501 30.2389 16.403 30.543 16.707C30.847 17.0111 30.9999 17.3807 31 17.8496V20.0547C31 20.3228 30.9629 20.5705 30.8916 20.7988C30.8195 21.0293 30.7096 21.2661 30.5586 21.5098L22.5996 33.4482V38.2617L23.1621 38.1914C27.4476 37.6512 31.049 35.7548 33.9463 32.5156C36.8474 29.2721 38.2998 25.4254 38.2998 21C38.2998 16.2133 36.612 12.1218 33.2451 8.75488C29.8782 5.388 25.7867 3.7002 21 3.7002ZM15.2002 16.5928L8.49121 9.88379L8.10352 9.49707L7.75293 9.91699C6.49223 11.4298 5.50246 13.1231 4.7832 14.9932C4.05994 16.8737 3.7002 18.8774 3.7002 21C3.7002 25.8198 5.37778 29.9208 8.72852 33.2715C12.0792 36.6222 16.1802 38.2998 21 38.2998H22.207L19.8838 35.9766C19.7136 35.8064 19.5938 35.6304 19.5166 35.4502C19.4398 35.2708 19.4004 35.0758 19.4004 34.8604V22.5996H18.9004C17.8791 22.5996 17.0166 22.2422 16.2871 21.5127C15.5578 20.7833 15.2003 19.9215 15.2002 18.9004V16.5928Z" fill="#248BC6" stroke="#248BC6"/>
</svg>
