<svg width="24" height="25" viewBox="0 0 24 25" fill="none" xmlns="http://www.w3.org/2000/svg">
<path d="M4.06734 24.1668C3.10459 24.1668 2.28757 23.8314 1.61629 23.1606C0.945015 22.4899 0.609375 21.6734 0.609375 20.7114V2.36595C0.609375 1.69425 0.897502 1.23011 1.47375 0.973546C2.05001 0.717283 2.56077 0.81148 3.00606 1.25613L5.71204 3.96059L4.29943 5.37216L5.15695 6.22906L6.56956 4.81703L10.4775 8.72214L9.06493 10.1342L9.922 10.9911L11.3351 9.57904L15.3833 13.6248L13.9707 15.0363L14.8282 15.8932L16.2408 14.4817L20.1488 18.3868L18.7362 19.7983L19.5937 20.6552L21.0063 19.2437L23.6068 21.8422C24.0286 22.2634 24.1113 22.7562 23.8548 23.3204C23.5981 23.8847 23.1453 24.1668 22.4966 24.1668H4.06734ZM4.40496 21.498H18.4479L3.28017 6.34136V20.374C3.28017 20.7018 3.38556 20.9712 3.59632 21.1821C3.80739 21.3927 4.07694 21.498 4.40496 21.498Z" fill="#393939"/>
</svg>
