<svg width="87" height="14" viewBox="0 0 87 14" fill="none" xmlns="http://www.w3.org/2000/svg">
<path d="M14.4388 5.0397C14.3761 4.86677 14.2613 4.71705 14.1098 4.61077C13.9583 4.50449 13.7775 4.44677 13.5918 4.44539H9.93326C9.87155 4.44537 9.81135 4.42653 9.76082 4.39143C9.71028 4.35634 9.67193 4.3067 9.65095 4.24927L8.34131 0.564589C8.27304 0.397692 8.15596 0.254774 8.00501 0.154177C7.85413 0.0535798 7.67624 -0.00010906 7.49426 1.66329e-07C7.30916 0.000876493 7.12888 0.0584983 6.97826 0.164931C6.82764 0.271364 6.71408 0.421374 6.65321 0.594303L5.33758 4.26116C5.31659 4.31859 5.27823 4.36822 5.22771 4.40332C5.17718 4.43841 5.11696 4.45725 5.05523 4.45728H1.39669C1.21078 4.4578 1.02958 4.51519 0.877931 4.62158C0.726284 4.72798 0.611615 4.87818 0.549644 5.05158C0.49005 5.22299 0.483963 5.40818 0.532175 5.58306C0.580388 5.75795 0.680667 5.91444 0.819979 6.03218L3.93184 8.58771C3.97859 8.62544 4.01277 8.67622 4.02991 8.73348C4.04706 8.79075 4.04638 8.85173 4.02795 8.90864L2.71833 12.7894C2.65665 12.9691 2.65454 13.1636 2.71231 13.3445C2.77008 13.5254 2.88472 13.6835 3.03953 13.7955C3.19434 13.9076 3.38125 13.9678 3.57308 13.9675C3.7649 13.9672 3.95161 13.9063 4.10605 13.7938L7.31403 11.4641C7.36509 11.426 7.4273 11.4054 7.49125 11.4054C7.5552 11.4054 7.61741 11.426 7.66847 11.4641L10.8825 13.7938C11.0357 13.9199 11.2269 13.9922 11.4262 13.9994C11.6253 14.0065 11.8213 13.9481 11.9835 13.8333C12.1455 13.7185 12.2646 13.5537 12.3219 13.3648C12.3792 13.1759 12.3716 12.9736 12.3002 12.7894L10.9906 8.90864C10.9721 8.85173 10.9715 8.79075 10.9886 8.73348C11.0058 8.67622 11.04 8.62544 11.0867 8.58771L14.2046 6.02624C14.3396 5.90429 14.4342 5.74486 14.476 5.56882C14.5178 5.39277 14.5048 5.20834 14.4388 5.0397Z" fill="#FFA107"/>
<path d="M32.4388 5.0397C32.3761 4.86677 32.2613 4.71705 32.1098 4.61077C31.9583 4.50449 31.7775 4.44677 31.5918 4.44539H27.9333C27.8715 4.44537 27.8114 4.42653 27.7608 4.39143C27.7103 4.35634 27.6719 4.3067 27.651 4.24927L26.3413 0.564589C26.273 0.397692 26.156 0.254774 26.005 0.154177C25.8541 0.0535798 25.6762 -0.00010906 25.4943 1.66329e-07C25.3092 0.000876493 25.1289 0.0584983 24.9783 0.164931C24.8276 0.271364 24.7141 0.421374 24.6532 0.594303L23.3376 4.26116C23.3166 4.31859 23.2782 4.36822 23.2277 4.40332C23.1772 4.43841 23.117 4.45725 23.0552 4.45728H19.3967C19.2108 4.4578 19.0296 4.51519 18.8779 4.62158C18.7263 4.72798 18.6116 4.87818 18.5496 5.05158C18.49 5.22299 18.484 5.40818 18.5322 5.58306C18.5804 5.75795 18.6807 5.91444 18.82 6.03218L21.9318 8.58771C21.9786 8.62544 22.0128 8.67622 22.0299 8.73348C22.0471 8.79075 22.0464 8.85173 22.028 8.90864L20.7183 12.7894C20.6567 12.9691 20.6545 13.1636 20.7123 13.3445C20.7701 13.5254 20.8847 13.6835 21.0395 13.7955C21.1943 13.9076 21.3813 13.9678 21.5731 13.9675C21.7649 13.9672 21.9516 13.9063 22.1061 13.7938L25.314 11.4641C25.3651 11.426 25.4273 11.4054 25.4912 11.4054C25.5552 11.4054 25.6174 11.426 25.6685 11.4641L28.8825 13.7938C29.0357 13.9199 29.2269 13.9922 29.4262 13.9994C29.6253 14.0065 29.8213 13.9481 29.9835 13.8333C30.1455 13.7185 30.2646 13.5537 30.3219 13.3648C30.3792 13.1759 30.3716 12.9736 30.3002 12.7894L28.9906 8.90864C28.9721 8.85173 28.9715 8.79075 28.9886 8.73348C29.0058 8.67622 29.04 8.62544 29.0867 8.58771L32.2046 6.02624C32.3396 5.90429 32.4342 5.74486 32.476 5.56882C32.5178 5.39277 32.5048 5.20834 32.4388 5.0397Z" fill="#FFA107"/>
<path d="M50.4388 5.0397C50.3761 4.86677 50.2613 4.71705 50.1098 4.61077C49.9583 4.50449 49.7775 4.44677 49.5918 4.44539H45.9333C45.8715 4.44537 45.8114 4.42653 45.7608 4.39143C45.7103 4.35634 45.6719 4.3067 45.651 4.24927L44.3413 0.564589C44.273 0.397692 44.156 0.254774 44.005 0.154177C43.8541 0.0535798 43.6762 -0.00010906 43.4943 1.66329e-07C43.3092 0.000876493 43.1289 0.0584983 42.9783 0.164931C42.8276 0.271364 42.7141 0.421374 42.6532 0.594303L41.3376 4.26116C41.3166 4.31859 41.2782 4.36822 41.2277 4.40332C41.1772 4.43841 41.117 4.45725 41.0552 4.45728H37.3967C37.2108 4.4578 37.0296 4.51519 36.8779 4.62158C36.7263 4.72798 36.6116 4.87818 36.5496 5.05158C36.49 5.22299 36.484 5.40818 36.5322 5.58306C36.5804 5.75795 36.6807 5.91444 36.82 6.03218L39.9318 8.58771C39.9786 8.62544 40.0128 8.67622 40.0299 8.73348C40.0471 8.79075 40.0464 8.85173 40.028 8.90864L38.7183 12.7894C38.6567 12.9691 38.6545 13.1636 38.7123 13.3445C38.7701 13.5254 38.8847 13.6835 39.0395 13.7955C39.1943 13.9076 39.3813 13.9678 39.5731 13.9675C39.7649 13.9672 39.9516 13.9063 40.1061 13.7938L43.314 11.4641C43.3651 11.426 43.4273 11.4054 43.4912 11.4054C43.5552 11.4054 43.6174 11.426 43.6685 11.4641L46.8825 13.7938C47.0357 13.9199 47.2269 13.9922 47.4262 13.9994C47.6253 14.0065 47.8213 13.9481 47.9835 13.8333C48.1455 13.7185 48.2646 13.5537 48.3219 13.3648C48.3792 13.1759 48.3716 12.9736 48.3002 12.7894L46.9906 8.90864C46.9721 8.85173 46.9715 8.79075 46.9886 8.73348C47.0058 8.67622 47.04 8.62544 47.0867 8.58771L50.2046 6.02624C50.3396 5.90429 50.4342 5.74486 50.476 5.56882C50.5178 5.39277 50.5048 5.20834 50.4388 5.0397Z" fill="#FFA107"/>
<path d="M68.4388 5.0397C68.3761 4.86677 68.2613 4.71705 68.1098 4.61077C67.9583 4.50449 67.7775 4.44677 67.5918 4.44539H63.9333C63.8715 4.44537 63.8114 4.42653 63.7608 4.39143C63.7103 4.35634 63.6719 4.3067 63.651 4.24927L62.3413 0.564589C62.273 0.397692 62.156 0.254774 62.005 0.154177C61.8541 0.0535798 61.6762 -0.00010906 61.4943 1.66329e-07C61.3092 0.000876493 61.1289 0.0584983 60.9783 0.164931C60.8276 0.271364 60.7141 0.421374 60.6532 0.594303L59.3376 4.26116C59.3166 4.31859 59.2782 4.36822 59.2277 4.40332C59.1772 4.43841 59.117 4.45725 59.0552 4.45728H55.3967C55.2108 4.4578 55.0296 4.51519 54.8779 4.62158C54.7263 4.72798 54.6116 4.87818 54.5496 5.05158C54.49 5.22299 54.484 5.40818 54.5322 5.58306C54.5804 5.75795 54.6807 5.91444 54.82 6.03218L57.9318 8.58771C57.9786 8.62544 58.0128 8.67622 58.0299 8.73348C58.0471 8.79075 58.0464 8.85173 58.028 8.90864L56.7183 12.7894C56.6567 12.9691 56.6545 13.1636 56.7123 13.3445C56.7701 13.5254 56.8847 13.6835 57.0395 13.7955C57.1943 13.9076 57.3813 13.9678 57.5731 13.9675C57.7649 13.9672 57.9516 13.9063 58.1061 13.7938L61.314 11.4641C61.3651 11.426 61.4273 11.4054 61.4912 11.4054C61.5552 11.4054 61.6174 11.426 61.6685 11.4641L64.8825 13.7938C65.0357 13.9199 65.2269 13.9922 65.4262 13.9994C65.6253 14.0065 65.8213 13.9481 65.9835 13.8333C66.1455 13.7185 66.2646 13.5537 66.3219 13.3648C66.3792 13.1759 66.3716 12.9736 66.3002 12.7894L64.9906 8.90864C64.9721 8.85173 64.9715 8.79075 64.9886 8.73348C65.0058 8.67622 65.04 8.62544 65.0867 8.58771L68.2046 6.02624C68.3396 5.90429 68.4342 5.74486 68.476 5.56882C68.5178 5.39277 68.5048 5.20834 68.4388 5.0397Z" fill="#FFA107"/>
<path d="M86.4388 5.0397C86.3761 4.86677 86.2613 4.71705 86.1098 4.61077C85.9583 4.50449 85.7775 4.44677 85.5918 4.44539H81.9333C81.8715 4.44537 81.8114 4.42653 81.7608 4.39143C81.7103 4.35634 81.6719 4.3067 81.651 4.24927L80.3413 0.564589C80.273 0.397692 80.156 0.254774 80.005 0.154177C79.8541 0.0535798 79.6762 -0.00010906 79.4943 1.66329e-07C79.3092 0.000876493 79.1289 0.0584983 78.9783 0.164931C78.8276 0.271364 78.7141 0.421374 78.6532 0.594303L77.3376 4.26116C77.3166 4.31859 77.2782 4.36822 77.2277 4.40332C77.1772 4.43841 77.117 4.45725 77.0552 4.45728H73.3967C73.2108 4.4578 73.0296 4.51519 72.8779 4.62158C72.7263 4.72798 72.6116 4.87818 72.5496 5.05158C72.49 5.22299 72.484 5.40818 72.5322 5.58306C72.5804 5.75795 72.6807 5.91444 72.82 6.03218L75.9318 8.58771C75.9786 8.62544 76.0128 8.67622 76.0299 8.73348C76.0471 8.79075 76.0464 8.85173 76.028 8.90864L74.7183 12.7894C74.6567 12.9691 74.6545 13.1636 74.7123 13.3445C74.7701 13.5254 74.8847 13.6835 75.0395 13.7955C75.1943 13.9076 75.3813 13.9678 75.5731 13.9675C75.7649 13.9672 75.9516 13.9063 76.1061 13.7938L79.314 11.4641C79.3651 11.426 79.4273 11.4054 79.4912 11.4054C79.5552 11.4054 79.6174 11.426 79.6685 11.4641L82.8825 13.7938C83.0357 13.9199 83.2269 13.9922 83.4262 13.9994C83.6253 14.0065 83.8213 13.9481 83.9835 13.8333C84.1455 13.7185 84.2646 13.5537 84.3219 13.3648C84.3792 13.1759 84.3716 12.9736 84.3002 12.7894L82.9906 8.90864C82.9721 8.85173 82.9715 8.79075 82.9886 8.73348C83.0058 8.67622 83.04 8.62544 83.0867 8.58771L86.2046 6.02624C86.3396 5.90429 86.4342 5.74486 86.476 5.56882C86.5178 5.39277 86.5048 5.20834 86.4388 5.0397Z" fill="#FFA107"/>
</svg>
