<svg width="114" height="106" viewBox="0 0 114 106" fill="none" xmlns="http://www.w3.org/2000/svg">
<path d="M72.9861 19.8647H41.2891L42.4949 20.8994H58.8603L79.0155 33.8336L75.3979 46.2504L92.4523 27.6252L70.5744 9L72.9861 19.8647Z" fill="#248BC6"/>
<path d="M57.417 32.5957L51 34.4916L56.2503 39.3044L63.1048 36.9709L57.417 32.5957Z" fill="#248BC6"/>
<path d="M59.6051 25.1582L53.334 26.1791L58.2926 30.1168L65.0012 28.3667L59.6051 25.1582Z" fill="#248BC6"/>
<path d="M49.6891 26.7607L43.418 27.6358L48.5224 32.3027L54.9394 30.6984L49.6891 26.7607Z" fill="#248BC6"/>
<path d="M67.1891 29.8242L60.918 31.7201L66.6058 36.0954L73.6061 33.6161L67.1891 29.8242Z" fill="#248BC6"/>
<path d="M56.5432 40.471L52.5664 57.0968L69.523 52.2841L74.3357 34.7832L66.8979 37.1167L66.1687 41.7836L62.3768 42.9503L63.3977 38.2834L56.5432 40.471Z" fill="#248BC6"/>
<path d="M55.3776 40.3251L42.5436 28.3662L41.9603 30.5538H41.0852C40.2798 30.5538 39.6268 31.2068 39.6268 32.0122C39.6268 32.8177 40.2798 33.4706 41.0852 33.4706H41.3769C42.3435 33.4706 43.127 34.2542 43.127 35.2207C43.127 36.1873 42.3435 36.9708 41.3769 36.9708H34.8479H28.2514C27.4459 36.9708 26.793 37.6238 26.793 38.4292C26.793 39.2347 27.4459 39.8876 28.2514 39.8876H44.002C44.9686 39.8876 45.7521 40.6712 45.7521 41.6377C45.7521 42.6043 44.9686 43.3878 44.002 43.3878H39.9185C39.4352 43.3878 39.0435 43.7796 39.0435 44.2628V44.2907C39.0435 44.551 39.1559 44.7987 39.3518 44.9702L43.4707 48.5741C43.6231 48.7074 43.7105 48.9001 43.7105 49.1026C43.7105 49.4904 43.3961 49.8048 43.0083 49.8048H36.7187C35.9012 49.8048 35.2434 50.4766 35.2606 51.2939C35.2773 52.0872 35.9252 52.7216 36.7187 52.7216H47.1038L51.5858 57.0968L55.3776 40.3251Z" fill="#141416"/>
<rect x="21.541" y="43.3877" width="4.08354" height="2.91681" rx="1.45841" fill="#141416"/>
<rect x="27.084" y="49.8037" width="5.83363" height="2.91681" rx="1.45841" fill="#141416"/>
<rect x="32.334" y="30.5547" width="5.83363" height="2.91681" rx="1.45841" fill="#141416"/>
<rect x="27.959" y="43.3877" width="9.04212" height="2.91681" rx="1.45841" fill="#141416"/>
<path d="M0.579325 81.041L1.073 77.877C2.48673 78.7072 4.25949 79.3356 5.92005 79.3356C7.64793 79.3356 8.72505 78.6848 8.72505 77.675C8.72505 74.9822 0.691525 76.6428 0.691525 71.0328C0.691525 68.0707 3.11505 65.9164 6.79521 65.9164C8.74749 65.9164 11.0364 66.5223 11.9788 67.2404L11.3505 70.3147C10.2285 69.6864 8.65773 69.0356 6.97473 69.0356C5.11221 69.0356 4.34925 69.8434 4.34925 70.6737C4.34925 73.389 12.3379 72.1099 12.3379 77.4506C12.3379 80.5473 9.44313 82.4098 5.96493 82.4098C3.92289 82.4098 2.06036 81.8488 0.579325 81.041ZM13.5675 70.1127H17.5394L19.6488 78.1462L22.2518 70.1127H25.932L28.3555 78.1911L30.8239 70.1127H34.5489L29.9487 82.0732H26.291L24.0021 74.1519L21.4215 82.0732H17.674L13.5675 70.1127ZM35.8862 66.5223C35.8862 65.3106 36.8511 64.5252 37.9731 64.5252C39.0951 64.5252 40.0601 65.2881 40.0601 66.5223C40.0601 67.7116 39.14 68.5195 37.9731 68.5195C36.9185 68.5195 35.8862 67.7565 35.8862 66.5223ZM36.2004 70.1127H39.7459V82.0732H36.2004V70.1127ZM43.9739 72.7606H42.0441V70.1127H43.9963C44.1085 68.7214 44.6022 67.6668 45.4774 66.9487C46.3301 66.253 47.5643 65.894 49.1576 65.894C49.6512 65.894 50.1 65.9164 50.4815 65.9838C50.863 66.0511 51.1547 66.1408 51.4016 66.2306L51.1098 68.699C50.9303 68.6317 50.7059 68.5644 50.4366 68.497C50.1674 68.4297 49.8532 68.4073 49.4942 68.4073C48.978 68.4073 48.5517 68.5195 48.2151 68.7663C47.856 69.0132 47.6316 69.462 47.5419 70.1127H50.5713V72.7606H47.5194V82.0732H43.9739V72.7606ZM53.6668 78.0116V72.7606H51.6247V70.1127H53.6668V67.016H57.2123V70.1127H61.5881V72.7606H57.2123V77.0691C57.2123 78.6848 57.9528 79.358 59.0524 79.358C59.9948 79.358 60.668 79.2009 61.5208 78.8643L61.992 81.5796C60.8924 82.0732 59.5685 82.3425 58.1323 82.3425C55.3273 82.3425 53.6668 80.9512 53.6668 78.0116ZM63.3281 81.041L63.8217 77.877C65.2355 78.7072 67.0082 79.3356 68.6688 79.3356C70.3967 79.3356 71.4738 78.6848 71.4738 77.675C71.4738 74.9822 63.4403 76.6428 63.4403 71.0328C63.4403 68.0707 65.8638 65.9164 69.5439 65.9164C71.4962 65.9164 73.7851 66.5223 74.7276 67.2404L74.0993 70.3147C72.9773 69.6864 71.4065 69.0356 69.7235 69.0356C67.8609 69.0356 67.098 69.8434 67.098 70.6737C67.098 73.389 75.0866 72.1099 75.0866 77.4506C75.0866 80.5473 72.1919 82.4098 68.7137 82.4098C66.6716 82.4098 64.8091 81.8488 63.3281 81.041ZM77.5505 66.2979H81.096V72.0874C82.1955 70.6064 83.6541 69.7761 85.4045 69.7761C88.187 69.7761 89.9598 71.1898 89.9598 75.1617V82.0732H86.4143V75.3412C86.4143 73.5236 85.8533 72.7158 84.462 72.7158C83.0931 72.7158 81.9711 73.6807 81.096 75.7227V82.0732H77.5505V66.2979ZM92.5648 66.5223C92.5648 65.3106 93.5297 64.5252 94.6517 64.5252C95.7737 64.5252 96.7386 65.2881 96.7386 66.5223C96.7386 67.7116 95.8186 68.5195 94.6517 68.5195C93.597 68.5195 92.5648 67.7565 92.5648 66.5223ZM92.8789 70.1127H96.4244V82.0732H92.8789V70.1127ZM99.4856 70.1127H102.852V71.8182C103.839 70.4718 105.23 69.7761 107.003 69.7761C110.145 69.7761 112.905 71.9977 112.905 76.1491C112.905 80.3229 110.01 82.4323 107.003 82.4323C105.298 82.4323 103.996 81.7142 103.031 80.4127V86.8081H99.4856V70.1127ZM109.157 76.1042C109.157 73.95 107.923 72.7158 106.307 72.7158C104.804 72.7158 103.502 73.9724 102.874 76.1491C103.457 78.1911 104.826 79.4702 106.285 79.4702C107.901 79.4702 109.157 78.236 109.157 76.1042Z" fill="#141416"/>
<path d="M1.39402 88.0495H2.78082V96.276H6.68538V97.5146H1.39402V88.0495ZM14.3796 94.0005C14.3796 91.5501 16.2377 90.271 18.1226 90.271C19.9807 90.271 21.9464 91.4828 21.9464 93.9332C21.9464 96.3837 20.0884 97.6628 18.0957 97.6628C16.1838 97.6628 14.3796 96.451 14.3796 94.0005ZM20.5192 94.0005C20.5192 92.3041 19.3882 91.4424 18.1496 91.4424C16.9782 91.4424 15.7934 92.2233 15.7934 93.9467C15.7934 95.6835 16.857 96.4914 18.1361 96.4914C19.4421 96.4914 20.5192 95.6566 20.5192 94.0005ZM30.6385 99.6016L30.8674 98.3763C31.7291 98.9553 32.9677 99.265 33.8833 99.265C35.1624 99.265 36.253 98.6187 36.253 97.3396V96.0336C35.6471 97.003 34.7854 97.4608 33.6275 97.4608C31.756 97.4608 30.1807 96.276 30.1807 93.9063C30.1807 91.5097 31.7291 90.271 33.6275 90.271C34.7719 90.271 35.6471 90.7826 36.253 91.7117V90.446H37.5994V97.4608C37.5994 99.2919 35.9702 100.49 33.8698 100.49C32.7254 100.49 31.4194 100.154 30.6385 99.6016ZM36.253 93.9602V93.9063C35.9567 92.4791 34.9739 91.4558 33.7487 91.4558C32.5234 91.4558 31.5809 92.1829 31.5809 93.8794C31.5809 95.4412 32.5234 96.276 33.7621 96.276C35.0681 96.276 35.9702 95.3604 36.253 93.9602ZM46.5387 88.2918C46.5387 87.7936 46.9561 87.4166 47.4408 87.4166C47.9255 87.4166 48.3429 87.7802 48.3429 88.2918C48.3429 88.79 47.9255 89.1804 47.4408 89.1804C46.9696 89.1804 46.5387 88.8034 46.5387 88.2918ZM46.7676 90.446H48.114V97.5146H46.7676V90.446ZM56.771 97.0973L57.0672 95.9394C57.6731 96.3029 58.4944 96.5452 59.2888 96.5452C60.2178 96.5452 60.8506 96.2894 60.8506 95.5758C60.8506 93.9602 56.8922 95.3335 56.8922 92.4387C56.8922 91.1462 57.902 90.271 59.6523 90.271C60.4467 90.271 61.3353 90.4864 61.9547 90.8365L61.6719 91.9809C61.0526 91.6174 60.3929 91.402 59.6927 91.402C58.8849 91.402 58.2521 91.7386 58.2521 92.3579C58.2521 94.1486 62.1836 92.7753 62.1836 95.4681C62.1836 96.8145 60.891 97.6628 59.2619 97.6628C58.3059 97.6628 57.3231 97.38 56.771 97.0973ZM71.2662 95.145V91.5232H70.014V90.446H71.2662V88.3995H72.6126V90.446H75.2381V91.5232H72.6126V94.8622C72.6126 96.074 73.1512 96.4779 73.8782 96.4779C74.3629 96.4779 74.8611 96.3702 75.3189 96.1279L75.5881 97.1915C74.9957 97.4877 74.3898 97.6628 73.582 97.6628C72.2491 97.6628 71.2662 96.9088 71.2662 95.145ZM83.5405 88.2918C83.5405 87.7936 83.9579 87.4166 84.4426 87.4166C84.9273 87.4166 85.3447 87.7802 85.3447 88.2918C85.3447 88.79 84.9273 89.1804 84.4426 89.1804C83.9714 89.1804 83.5405 88.8034 83.5405 88.2918ZM83.7694 90.446H85.1158V97.5146H83.7694V90.446ZM93.8267 94.0409C93.8267 91.5905 95.577 90.271 97.462 90.271C98.4314 90.271 99.1854 90.473 99.7913 90.9442L99.4008 92.0752C98.8757 91.7117 98.391 91.4558 97.5024 91.4558C96.3176 91.4558 95.2404 92.3445 95.2404 93.9871C95.2404 95.5624 96.2772 96.4914 97.4889 96.4914C98.2564 96.4914 98.8219 96.3702 99.4681 95.9798L99.7509 97.0299C99.2123 97.4204 98.4449 97.6628 97.4216 97.6628C95.5232 97.6628 93.8267 96.3971 93.8267 94.0409ZM107.785 97.0973L108.082 95.9394C108.687 96.3029 109.509 96.5452 110.303 96.5452C111.232 96.5452 111.865 96.2894 111.865 95.5758C111.865 93.9602 107.907 95.3335 107.907 92.4387C107.907 91.1462 108.916 90.271 110.667 90.271C111.461 90.271 112.35 90.4864 112.969 90.8365L112.686 91.9809C112.067 91.6174 111.407 91.402 110.707 91.402C109.899 91.402 109.266 91.7386 109.266 92.3579C109.266 94.1486 113.198 92.7753 113.198 95.4681C113.198 96.8145 111.905 97.6628 110.276 97.6628C109.32 97.6628 108.337 97.38 107.785 97.0973Z" fill="#248BC6"/>
</svg>
