<svg width="21" height="21" viewBox="0 0 21 21" fill="none" xmlns="http://www.w3.org/2000/svg">
<path d="M10.459 0.932617C11.7773 0.932617 13.015 1.18302 14.1729 1.68262C15.3328 2.18313 16.3413 2.8618 17.1982 3.71875C18.0552 4.5757 18.7339 5.58422 19.2344 6.74414C19.734 7.90204 19.9844 9.13967 19.9844 10.458C19.9844 11.7763 19.734 13.014 19.2344 14.1719C18.7339 15.3318 18.0552 16.3403 17.1982 17.1973C16.3413 18.0542 15.3328 18.7329 14.1729 19.2334C13.015 19.733 11.7773 19.9834 10.459 19.9834C9.14065 19.9834 7.90302 19.733 6.74512 19.2334C5.58519 18.7329 4.57667 18.0542 3.71973 17.1973C2.86278 16.3403 2.18411 15.3318 1.68359 14.1719C1.184 13.014 0.933594 11.7763 0.933594 10.458C0.933594 9.13967 1.184 7.90204 1.68359 6.74414C2.18411 5.58422 2.86278 4.5757 3.71973 3.71875C4.57667 2.8618 5.5852 2.18313 6.74512 1.68262C7.90302 1.18302 9.14065 0.932617 10.459 0.932617ZM10.459 15.1709C9.59889 15.1709 8.78624 15.2966 8.02148 15.5488C7.25763 15.8007 6.55815 16.1621 5.92383 16.6338L5.81543 16.7139L5.92383 16.7949C6.55813 17.2665 7.25765 17.628 8.02148 17.8799C8.78623 18.1321 9.5989 18.2578 10.459 18.2578C11.3191 18.2578 12.1317 18.1321 12.8965 17.8799C13.6603 17.628 14.3598 17.2665 14.9941 16.7949L15.1025 16.7139L14.9941 16.6338C14.3598 16.1621 13.6603 15.8007 12.8965 15.5488C12.1317 15.2966 11.3191 15.1709 10.459 15.1709ZM10.459 2.6582C8.29909 2.6582 6.45725 3.41873 4.93848 4.9375C3.4197 6.45627 2.65918 8.29812 2.65918 10.458C2.65918 11.4157 2.81749 12.318 3.13477 13.1641C3.45153 14.0088 3.89465 14.7648 4.46387 15.4316L4.52539 15.5039L4.60059 15.4463C5.4101 14.8273 6.31519 14.339 7.31641 13.9814C8.3159 13.6245 9.36321 13.4453 10.459 13.4453C11.5548 13.4453 12.6021 13.6245 13.6016 13.9814C14.6028 14.339 15.5079 14.8273 16.3174 15.4463L16.3926 15.5039L16.4541 15.4316C17.0233 14.7648 17.4664 14.0088 17.7832 13.1641C18.1005 12.318 18.2588 11.4157 18.2588 10.458C18.2588 8.29812 17.4983 6.45627 15.9795 4.9375C14.4607 3.41873 12.6189 2.6582 10.459 2.6582ZM10.459 4.7832C11.3798 4.7832 12.1519 5.0982 12.7822 5.72852C13.4125 6.35883 13.7275 7.13093 13.7275 8.05176C13.7275 8.97259 13.4125 9.74469 12.7822 10.375C12.1519 11.0053 11.3798 11.3203 10.459 11.3203C9.53815 11.3203 8.76605 11.0053 8.13574 10.375C7.50543 9.74469 7.19043 8.97259 7.19043 8.05176C7.19043 7.13093 7.50543 6.35883 8.13574 5.72852C8.76605 5.0982 9.53815 4.7832 10.459 4.7832ZM10.459 6.50781C10.0178 6.50781 9.6466 6.65321 9.35352 6.94629C9.06043 7.23937 8.91504 7.61054 8.91504 8.05176C8.91504 8.49298 9.06043 8.86414 9.35352 9.15723C9.6466 9.45031 10.0178 9.5957 10.459 9.5957C10.9002 9.5957 11.2714 9.45031 11.5645 9.15723C11.8575 8.86414 12.0029 8.49298 12.0029 8.05176C12.0029 7.61054 11.8575 7.23937 11.5645 6.94629C11.2714 6.65321 10.9002 6.50781 10.459 6.50781Z" fill="#141416" stroke="#141416" stroke-width="0.2"/>
</svg>