<svg width="34" height="42" viewBox="0 0 34 42" fill="none" xmlns="http://www.w3.org/2000/svg">
<path d="M33.0996 6.64648V19.1104C33.0995 24.3231 31.5504 29.059 28.4443 33.332C25.3669 37.5656 21.4877 40.2725 16.7998 41.4824C12.1121 40.2724 8.23259 37.5655 5.15527 33.332C2.04928 29.059 0.50007 24.323 0.5 19.1104V6.64648L16.7998 0.533203L33.0996 6.64648ZM25.7529 16.5898L14.5947 27.748L7.89844 21.0518L10.1846 18.7666L14.5947 23.1768L14.9482 22.8232L23.4668 14.3037L25.7529 16.5898ZM29.9004 8.84082L29.5752 8.71973L16.9756 3.99414L16.7998 3.92871L16.624 3.99414L4.02441 8.71973L3.7002 8.84082V19.1104C3.70026 23.4455 4.91982 27.3945 7.35742 30.9434C9.79363 34.4902 12.8917 36.8743 16.6484 38.0664L16.7998 38.1143L16.9512 38.0664C20.708 36.8743 23.8059 34.4902 26.2422 30.9434C28.6798 27.3945 29.9003 23.4455 29.9004 19.1104V8.84082Z" fill="#248BC6" stroke="#248BC6"/>
</svg>
